<svg width="12" height="14" viewBox="0 0 12 14" fill="none" xmlns="http://www.w3.org/2000/svg">
<path d="M5.99987 3.10775C5.53832 3.11681 5.08973 3.26195 4.71036 3.52497C4.33099 3.788 4.03773 4.15719 3.86737 4.58624C3.69701 5.01528 3.65713 5.48508 3.75274 5.93671C3.84835 6.38833 4.07519 6.80166 4.4048 7.12487C4.73442 7.44807 5.15213 7.66674 5.60554 7.75346C6.05896 7.84018 6.52788 7.79108 6.9535 7.61233C7.37912 7.43357 7.74248 7.13312 7.998 6.74865C8.25352 6.36418 8.38982 5.91283 8.38981 5.45119C8.38229 4.82394 8.1266 4.2252 7.6787 3.78601C7.23079 3.34682 6.62715 3.10294 5.99987 3.10775ZM5.99987 6.77216C5.73953 6.76753 5.48637 6.6861 5.27216 6.53809C5.05795 6.39008 4.89223 6.18208 4.79582 5.94021C4.69941 5.69835 4.6766 5.43339 4.73025 5.1786C4.78391 4.92381 4.91163 4.69056 5.09739 4.50811C5.28316 4.32566 5.51868 4.20216 5.77439 4.1531C6.0301 4.10404 6.2946 4.13162 6.53469 4.23237C6.77479 4.33312 6.97976 4.50255 7.1239 4.71939C7.26803 4.93623 7.34489 5.19082 7.34483 5.45119C7.34061 5.80439 7.1968 6.14157 6.94479 6.38907C6.69279 6.63658 6.35308 6.7743 5.99987 6.77216ZM5.99987 0.00031654C5.21999 -0.00773542 4.44617 0.137901 3.72258 0.42891C2.99899 0.71992 2.33981 1.1506 1.78267 1.69637C1.22553 2.24213 0.781343 2.89229 0.475471 3.60973C0.1696 4.32716 0.00803466 5.09781 0 5.87769C0 9.06961 2.99493 12.0645 4.74989 13.547C5.1002 13.8386 5.54158 13.9983 5.99736 13.9983C6.45315 13.9983 6.89453 13.8386 7.24484 13.547C9.0048 12.0645 11.9997 9.06961 11.9997 5.87769C11.983 4.30283 11.3416 2.79907 10.2165 1.69696C9.0914 0.594849 7.57473 -0.0154134 5.99987 0.00031654ZM6.56485 12.77C6.40663 12.9029 6.20645 12.9753 5.99987 12.9745C5.79195 12.9742 5.59055 12.902 5.42988 12.77C4.10991 11.6561 1.03998 8.75512 1.03998 5.87519C1.06604 4.57765 1.59979 3.34204 2.52664 2.43362C3.45349 1.5252 4.69956 1.01637 5.99736 1.01637C7.29517 1.01637 8.54124 1.5252 9.46809 2.43362C10.3949 3.34204 10.9287 4.57765 10.9548 5.87519C10.9548 8.75812 7.88482 11.6586 6.56485 12.77Z" fill="#666666"/>
</svg>
