<svg width="32" height="38" viewBox="0 0 32 38" fill="none" xmlns="http://www.w3.org/2000/svg">
<g filter="url(#filter0_d_913_1688)">
<path d="M26.9972 13.6115C26.9972 9.14411 24.3256 5.29833 20.4937 3.59093C20.4743 3.58264 20.455 3.57435 20.4329 3.5633C20.3942 3.54673 20.3555 3.53015 20.3141 3.51357C18.9879 2.9472 17.532 2.63501 15.9986 2.63501C9.92603 2.63501 5 7.55828 5 13.6336C5 16.3135 5.95868 18.7669 7.55004 20.6759C7.57491 20.7091 7.59977 20.7423 7.6274 20.7726L7.65779 20.8058C7.71305 20.8693 7.76554 20.9301 7.82356 20.9937L7.82632 20.9909L15.109 28.956C15.1891 29.0444 15.2831 29.1162 15.3825 29.1743C15.8384 29.4809 16.4628 29.4146 16.8468 28.9974L23.9444 21.2313L23.9471 21.234C24.0908 21.0848 24.2317 20.9301 24.3671 20.7699L24.3698 20.7671C24.3892 20.7478 24.4058 20.7257 24.4223 20.7036C26.0303 18.7917 27 16.3218 27 13.6281V13.6198C26.9972 13.6171 26.9972 13.6143 26.9972 13.6115Z" fill="#00BF63"/>
<path d="M23.9415 20.875L23.9362 20.8696L23.7598 21.0626L16.6629 28.8281C16.6627 28.8282 16.6626 28.8284 16.6625 28.8285C16.3625 29.154 15.8759 29.2048 15.5221 28.9668L15.5154 28.9624L15.5085 28.9583C15.4272 28.9109 15.3544 28.8544 15.2943 28.7881L15.2935 28.7873L8.01083 20.8222L7.85823 20.6553L7.84644 20.6418L7.84651 20.6417L7.84208 20.6369L7.81238 20.6045C7.81227 20.6044 7.81216 20.6042 7.81205 20.6041C7.79382 20.584 7.77599 20.5605 7.75004 20.5259L7.75031 20.5258L7.74208 20.5159C6.18668 18.6499 5.25 16.2527 5.25 13.6336C5.25 7.69639 10.0641 2.88501 15.9986 2.88501C17.4977 2.88501 18.9203 3.19015 20.2159 3.74348L20.2159 3.74354L20.2212 3.74569C20.2574 3.76015 20.2915 3.77472 20.3282 3.79041C20.3538 3.80299 20.3762 3.8126 20.3935 3.82001C24.1377 5.48902 26.7472 9.2469 26.7472 13.6115C26.7472 13.6117 26.7472 13.6121 26.7472 13.6125C26.7472 13.6168 26.7469 13.6311 26.75 13.6512C26.7445 16.2749 25.7979 18.6796 24.231 20.5427L24.2307 20.5424L24.2223 20.5536C24.2039 20.5782 24.1977 20.5857 24.1931 20.5903L24.3698 20.7671L24.1931 20.5903L24.1903 20.5931L24.1829 20.6005L24.1761 20.6085C24.0997 20.699 24.0213 20.7878 23.9415 20.875Z" stroke="white" stroke-width="0.5"/>
</g>
<path d="M16.0295 5.36353C11.4753 5.36353 7.77954 9.05932 7.77954 13.6135C7.77954 18.1677 11.4753 21.8635 16.0295 21.8635C20.5837 21.8635 24.2795 18.1677 24.2795 13.6135C24.2795 9.05932 20.5837 5.36353 16.0295 5.36353Z" fill="white"/>
<path d="M20.8237 15.6495L19.5765 12.0597C19.5694 12.0388 19.5601 12.0187 19.5487 11.9998C19.3782 11.7316 19.0225 11.6524 18.7543 11.8229C18.683 11.8682 18.6227 11.9286 18.5774 11.9998C18.5709 12.01 18.5651 12.0207 18.5603 12.0319L17.5955 14.1476L15.1717 9.1995C15.099 9.0739 14.9935 8.97049 14.8665 8.90038C14.7394 8.83027 14.5957 8.79612 14.4507 8.80159C14.3066 8.80088 14.1651 8.83931 14.0411 8.91278C13.9171 8.98625 13.8155 9.092 13.7469 9.21874L13.7341 9.25083L11.2354 15.6366C11.2184 15.6848 11.2131 15.7363 11.22 15.7869C11.2269 15.8375 11.2458 15.8857 11.2751 15.9276C11.3044 15.9694 11.3432 16.0036 11.3884 16.0275C11.4336 16.0513 11.4838 16.0639 11.5349 16.0644H20.5199C20.5713 16.0647 20.6221 16.0525 20.6678 16.029C20.7136 16.0055 20.753 15.9713 20.7828 15.9294C20.8126 15.8874 20.8319 15.8389 20.839 15.788C20.8461 15.737 20.8408 15.6851 20.8237 15.6366V15.6495H20.8237ZM12.0055 15.4334L14.316 9.50328C14.3325 9.48334 14.3536 9.46754 14.3773 9.45715C14.4011 9.44676 14.427 9.44205 14.4529 9.44341C14.4791 9.44066 14.5056 9.44384 14.5304 9.45273C14.5552 9.46161 14.5777 9.47597 14.5962 9.49473L17.3109 15.0397C17.3385 15.0937 17.3804 15.1391 17.4322 15.1708C17.4839 15.2025 17.5434 15.2193 17.604 15.2194C17.6663 15.2192 17.7272 15.2009 17.7792 15.1667C17.8312 15.1325 17.8722 15.0839 17.8971 15.0269L19.0502 12.5025L20.0685 15.4333H12.0055L12.0055 15.4334ZM19.5572 16.5244H12.4975C12.4408 16.5244 12.3864 16.547 12.3463 16.5871C12.3061 16.6272 12.2836 16.6816 12.2836 16.7384C12.2836 16.7951 12.3061 16.8495 12.3463 16.8896C12.3864 16.9298 12.4408 16.9523 12.4975 16.9523H19.5572C19.5854 16.9525 19.6134 16.9471 19.6395 16.9364C19.6656 16.9258 19.6893 16.91 19.7094 16.8902C19.7294 16.8703 19.7453 16.8466 19.7561 16.8206C19.767 16.7945 19.7725 16.7666 19.7725 16.7384C19.7725 16.7102 19.767 16.6822 19.7561 16.6562C19.7453 16.6301 19.7294 16.6065 19.7094 16.5866C19.6893 16.5667 19.6656 16.551 19.6395 16.5403C19.6134 16.5296 19.5854 16.5243 19.5572 16.5244ZM18.1667 17.3801H13.8881C13.8316 17.3805 13.7776 17.4032 13.7378 17.4433C13.698 17.4834 13.6756 17.5376 13.6756 17.5941C13.6756 17.6506 13.698 17.7048 13.7378 17.7448C13.7776 17.7849 13.8316 17.8076 13.8881 17.808H18.1667C18.2232 17.8076 18.2773 17.7849 18.3171 17.7448C18.3569 17.7048 18.3792 17.6506 18.3792 17.5941C18.3792 17.5376 18.3569 17.4834 18.3171 17.4433C18.2773 17.4032 18.2232 17.3805 18.1667 17.3801Z" fill="#00BF63"/>
<path d="M17.7578 11.2633C18.2295 11.2633 18.6118 10.881 18.6118 10.4094C18.6118 9.93774 18.2295 9.55542 17.7578 9.55542C17.2862 9.55542 16.9038 9.93778 16.9038 10.4094C16.9038 10.881 17.2862 11.2633 17.7578 11.2633ZM17.7578 9.84006C18.0723 9.84006 18.3271 10.0949 18.3271 10.4094C18.3271 10.7238 18.0722 10.9787 17.7578 10.9787C17.4434 10.9787 17.1886 10.7238 17.1886 10.4094C17.1886 10.0949 17.4434 9.84006 17.7578 9.84006Z" fill="#00BF63"/>
<path d="M17.0894 10.3695C17.0894 10.5469 17.1598 10.717 17.2852 10.8424C17.4107 10.9679 17.5808 11.0383 17.7582 11.0383C17.9356 11.0383 18.1057 10.9679 18.2311 10.8424C18.3565 10.717 18.427 10.5469 18.427 10.3695C18.427 10.1921 18.3565 10.022 18.2311 9.89658C18.1057 9.77115 17.9356 9.70068 17.7582 9.70068C17.5808 9.70068 17.4107 9.77115 17.2852 9.89658C17.1598 10.022 17.0894 10.1921 17.0894 10.3695Z" fill="#00BF63"/>
<path d="M17.4045 14.301L14.9983 9.14478H13.967L11.5608 15.676H20.4983L19.467 12.2385H18.7795L18.092 14.301H17.4045Z" fill="#00BF63"/>
<defs>
<filter id="filter0_d_913_1688" x="1" y="2.63501" width="30" height="34.73" filterUnits="userSpaceOnUse" color-interpolation-filters="sRGB">
<feFlood flood-opacity="0" result="BackgroundImageFix"/>
<feColorMatrix in="SourceAlpha" type="matrix" values="0 0 0 0 0 0 0 0 0 0 0 0 0 0 0 0 0 0 127 0" result="hardAlpha"/>
<feOffset dy="4"/>
<feGaussianBlur stdDeviation="2"/>
<feComposite in2="hardAlpha" operator="out"/>
<feColorMatrix type="matrix" values="0 0 0 0 0 0 0 0 0 0 0 0 0 0 0 0 0 0 0.25 0"/>
<feBlend mode="normal" in2="BackgroundImageFix" result="effect1_dropShadow_913_1688"/>
<feBlend mode="normal" in="SourceGraphic" in2="effect1_dropShadow_913_1688" result="shape"/>
</filter>
</defs>
</svg>
