<svg width="24" height="23" viewBox="0 0 24 23" fill="none" xmlns="http://www.w3.org/2000/svg">
<path d="M23.9543 17.3471L20.8444 8.39605C20.8267 8.34392 20.8034 8.29386 20.7749 8.24674C20.3498 7.57794 19.463 7.38044 18.7941 7.80568C18.6165 7.91856 18.466 8.06914 18.3532 8.24674C18.3368 8.27218 18.3225 8.29889 18.3105 8.3266L15.9047 13.6023L9.86085 1.26411C9.67972 0.950934 9.41663 0.69307 9.09989 0.51825C8.78315 0.34343 8.42474 0.258269 8.06321 0.271927C7.70392 0.270158 7.3509 0.365983 7.04181 0.549175C6.73273 0.732367 6.47919 0.99605 6.30825 1.31208L6.27624 1.39209L0.0456768 17.3151C0.00326899 17.4352 -0.00986997 17.5636 0.00735163 17.6898C0.0245732 17.816 0.0716581 17.9362 0.144694 18.0406C0.21773 18.1449 0.314608 18.2303 0.427278 18.2896C0.539948 18.349 0.665157 18.3806 0.792501 18.3819H23.1967C23.325 18.3824 23.4515 18.3521 23.5656 18.2935C23.6797 18.2349 23.778 18.1497 23.8523 18.0451C23.9266 17.9405 23.9746 17.8196 23.9923 17.6925C24.0101 17.5655 23.997 17.436 23.9542 17.3151V17.3471H23.9543ZM1.96603 16.8083L7.72716 2.02159C7.76854 1.97186 7.82095 1.93247 7.88022 1.90656C7.9395 1.88064 8.004 1.86891 8.06861 1.8723C8.13396 1.86544 8.20002 1.87338 8.26189 1.89553C8.32375 1.91768 8.37984 1.95348 8.42599 2.00027L15.1951 15.8266C15.2639 15.9614 15.3685 16.0745 15.4975 16.1536C15.6264 16.2326 15.7747 16.2745 15.926 16.2746C16.0812 16.2742 16.233 16.2285 16.3628 16.1433C16.4925 16.0581 16.5947 15.9369 16.6569 15.7947L19.532 9.50028L22.0713 16.8081H1.96601L1.96603 16.8083ZM20.7961 19.5289H3.19292C3.05144 19.5289 2.91576 19.5851 2.81572 19.6851C2.71568 19.7852 2.65948 19.9209 2.65948 20.0623C2.65948 20.2038 2.71568 20.3395 2.81572 20.4395C2.91576 20.5396 3.05144 20.5958 3.19292 20.5958H20.7961C20.8665 20.5963 20.9363 20.5828 21.0014 20.5562C21.0665 20.5296 21.1258 20.4904 21.1757 20.4408C21.2256 20.3912 21.2652 20.3323 21.2922 20.2673C21.3193 20.2024 21.3332 20.1327 21.3332 20.0623C21.3332 19.992 21.3193 19.9223 21.2922 19.8574C21.2652 19.7924 21.2256 19.7334 21.1757 19.6839C21.1258 19.6343 21.0665 19.5951 21.0014 19.5685C20.9363 19.5419 20.8665 19.5284 20.7961 19.5289ZM17.3291 21.6626H6.66036C6.5195 21.6635 6.38473 21.7201 6.28546 21.8201C6.18619 21.92 6.13048 22.0552 6.13048 22.196C6.13048 22.3369 6.18619 22.472 6.28546 22.572C6.38473 22.6719 6.5195 22.7285 6.66036 22.7295H17.3291C17.4699 22.7285 17.6047 22.6719 17.704 22.572C17.8032 22.472 17.859 22.3369 17.859 22.196C17.859 22.0552 17.8032 21.92 17.704 21.8201C17.6047 21.7201 17.4699 21.6635 17.3291 21.6626Z" fill="#00BF63"/>
<path d="M16.3094 6.40783C17.4855 6.40783 18.4387 5.45443 18.4387 4.27857C18.4387 3.10248 17.4854 2.14917 16.3094 2.14917C15.1334 2.14917 14.1799 3.10258 14.1799 4.27857C14.1799 5.45457 15.1333 6.40783 16.3094 6.40783ZM16.3094 2.85892C17.0935 2.85892 17.7289 3.49446 17.7289 4.27857C17.7289 5.06254 17.0934 5.69808 16.3094 5.69808C15.5254 5.69808 14.8899 5.06242 14.8899 4.27857C14.8899 3.49446 15.5253 2.85892 16.3094 2.85892Z" fill="#00BF63"/>
<path d="M14.6428 4.18334C14.6428 4.62532 14.8184 5.0492 15.1309 5.36172C15.4434 5.67425 15.8673 5.84983 16.3093 5.84983C16.7513 5.84983 17.1751 5.67425 17.4877 5.36172C17.8002 5.0492 17.9758 4.62532 17.9758 4.18334C17.9758 3.74136 17.8002 3.31748 17.4877 3.00495C17.1751 2.69242 16.7513 2.51685 16.3093 2.51685C15.8673 2.51685 15.4434 2.69242 15.1309 3.00495C14.8184 3.31748 14.6428 3.74136 14.6428 4.18334Z" fill="#00BF63"/>
</svg>
