<svg width="26" height="26" viewBox="0 0 26 26" fill="none" xmlns="http://www.w3.org/2000/svg">
<path d="M20.7458 22.425L3.575 5.25417C3.14167 4.82083 3.14167 4.0625 3.575 3.575C4.00833 3.14167 4.76667 3.14167 5.25417 3.575L22.425 20.7458C22.8583 21.1792 22.8583 21.9375 22.425 22.425C21.9375 22.8583 21.1792 22.8583 20.7458 22.425Z" fill="white"/>
<path d="M5.25417 22.425L22.425 5.25417C22.8583 4.82083 22.8583 4.0625 22.425 3.575C21.9917 3.14167 21.2333 3.14167 20.7458 3.575L3.575 20.7458C3.14167 21.1792 3.14167 21.9375 3.575 22.425C4.0625 22.8583 4.82083 22.8583 5.25417 22.425Z" fill="white"/>
</svg>
