<svg width="44" height="44" viewBox="0 0 44 44" fill="none" xmlns="http://www.w3.org/2000/svg">
<g clip-path="url(#clip0_298_891)">
<path d="M17.2063 31.4649C17.6561 31.712 18.1608 31.8422 18.674 31.8435C19.3012 31.8451 19.9155 31.6649 20.4425 31.3249L29.8866 25.1014C30.4009 24.7627 30.8218 24.3003 31.1109 23.7566C31.4 23.2129 31.5479 22.6054 31.541 21.9896C31.549 21.3903 31.4064 20.7985 31.1265 20.2684C30.8465 19.7384 30.438 19.287 29.9385 18.9557L20.4062 12.7322C19.937 12.4168 19.3907 12.2351 18.826 12.2068C18.2613 12.1785 17.6995 12.3045 17.2011 12.5714C16.6385 12.9008 16.175 13.3756 15.8593 13.946C15.5435 14.5164 15.3872 15.1612 15.4067 15.8128V28.2598C15.3942 28.9058 15.5545 29.5435 15.8708 30.1069C16.1872 30.6704 16.6482 31.1392 17.2063 31.4649ZM19.0111 27.9279V16.0773L27.9314 21.9067V21.9482C27.9343 21.9809 27.9343 22.0139 27.9314 22.0467L19.0111 27.9279Z" fill="#999999"/>
<path d="M6.44488 37.5586C10.3007 41.4028 15.4496 43.6738 20.8883 43.929C26.327 44.1843 31.666 42.4055 35.8649 38.9393C40.0637 35.4731 42.8217 30.5678 43.6015 25.1792C44.3812 19.7907 43.1268 14.3048 40.0827 9.79053C37.0386 5.27628 32.4229 2.05706 27.1349 0.760138C21.8469 -0.536789 16.2654 0.181483 11.4781 2.775C6.69076 5.36851 3.04047 9.65148 1.2385 14.7894C-0.563476 19.9272 -0.38805 25.552 1.73059 30.5676C2.83772 33.1795 4.4384 35.5532 6.44488 37.5586ZM3.63394 21.9999C3.63394 18.3605 4.71348 14.8029 6.73596 11.7772C8.75844 8.75151 11.633 6.39372 14.9958 5.00217C18.3587 3.61062 22.0588 3.24784 25.6279 3.95975C29.1969 4.67165 32.4747 6.42623 35.0463 9.00149C37.6179 11.5768 39.3679 14.857 40.0748 18.4271C40.7816 21.9972 40.4136 25.6967 39.0173 29.0576C37.621 32.4185 35.2592 35.2897 32.2307 37.3079C29.2021 39.3261 25.643 40.4006 22.0036 40.3955C17.131 40.3831 12.4618 38.4403 9.01876 34.9924C5.57571 31.5444 3.63941 26.8726 3.63394 21.9999Z" fill="#999999"/>
</g>
<defs>
<clipPath id="clip0_298_891">
<rect width="44" height="44" fill="white"/>
</clipPath>
</defs>
</svg>
