<svg width="19" height="18" viewBox="0 0 19 18" fill="none" xmlns="http://www.w3.org/2000/svg">
<path d="M2.67804 9.77177C2.55208 9.77191 2.42971 9.72976 2.33054 9.65208C2.23138 9.5744 2.16116 9.46569 2.13113 9.34335C2.1011 9.22101 2.11301 9.09214 2.16494 8.97738C2.21687 8.86261 2.30582 8.7686 2.41753 8.7104L15.0595 2.12036C15.1919 2.05139 15.3461 2.0378 15.4885 2.08258C15.6308 2.12736 15.7495 2.22685 15.8185 2.35916C15.8875 2.49147 15.901 2.64576 15.8563 2.78808C15.8115 2.93041 15.712 3.04912 15.5797 3.1181L2.9375 9.70796C2.85742 9.74984 2.76841 9.77173 2.67804 9.77177Z" fill="white"/>
<path d="M11.1978 16.8347C11.11 16.8346 11.0235 16.814 10.9451 16.7745C10.8668 16.735 10.7987 16.6777 10.7464 16.6072C10.6942 16.5367 10.6591 16.455 10.6441 16.3685C10.6291 16.282 10.6345 16.1933 10.6599 16.1093L14.7844 2.46266C14.8284 2.32086 14.9267 2.20222 15.0579 2.13259C15.189 2.06296 15.3423 2.048 15.4844 2.09096C15.6265 2.13393 15.7459 2.23133 15.8165 2.36194C15.8871 2.49256 15.9032 2.64578 15.8613 2.7882L11.736 16.4357C11.701 16.5511 11.6297 16.6522 11.5328 16.7241C11.4359 16.7959 11.3184 16.8347 11.1978 16.8347ZM9.39288 10.2032C9.38092 10.2032 9.36897 10.2032 9.35684 10.202L2.65149 9.77797C2.57776 9.77336 2.50566 9.75426 2.43931 9.72178C2.37296 9.6893 2.31365 9.64407 2.26478 9.58867C2.21591 9.53327 2.17843 9.46879 2.15448 9.3989C2.13053 9.32902 2.12058 9.2551 2.1252 9.18137C2.12982 9.10764 2.14891 9.03554 2.18139 8.96919C2.21387 8.90284 2.2591 8.84354 2.3145 8.79466C2.3699 8.74579 2.43438 8.70831 2.50427 8.68436C2.57415 8.66041 2.64807 8.65046 2.7218 8.65508L9.42786 9.07924C9.57385 9.08819 9.71061 9.15366 9.80914 9.26175C9.90768 9.36985 9.96023 9.51208 9.95566 9.65827C9.95109 9.80447 9.88975 9.94313 9.78465 10.0449C9.67955 10.1466 9.53897 10.2034 9.3927 10.2032H9.39288Z" fill="white"/>
<path d="M11.1897 16.828C11.0662 16.8279 10.9462 16.7872 10.8481 16.7122C10.75 16.6371 10.6794 16.5318 10.6471 16.4126L8.84937 9.78796C8.83003 9.71666 8.82491 9.64226 8.83433 9.56899C8.84374 9.49572 8.86749 9.42502 8.90422 9.36093C8.94096 9.29683 8.98996 9.24061 9.04842 9.19545C9.10689 9.1503 9.17367 9.1171 9.24497 9.09775C9.31626 9.07841 9.39067 9.0733 9.46394 9.08271C9.53721 9.09212 9.60791 9.11587 9.672 9.15261C9.73609 9.18934 9.79232 9.23834 9.83748 9.2968C9.88263 9.35527 9.91583 9.42206 9.93517 9.49335L11.7322 16.118C11.7515 16.1893 11.7566 16.2637 11.7472 16.337C11.7378 16.4102 11.714 16.4809 11.6773 16.545C11.6405 16.6091 11.5915 16.6653 11.5331 16.7105C11.4746 16.7556 11.4078 16.7888 11.3365 16.8081C11.2887 16.8213 11.2393 16.828 11.1897 16.828Z" fill="white"/>
</svg>
