<svg width="18" height="21" viewBox="0 0 18 21" fill="none" xmlns="http://www.w3.org/2000/svg">
<path d="M15.8605 20.8879H14.8023C13.8781 20.8879 13.1261 20.0812 13.1261 19.0859V14.1395C12.2375 14.1312 11.5211 13.3273 11.5211 12.3348V5.25273C11.5238 2.58398 13.3586 0.371875 15.7976 0.109375H15.8058C16.8312 0.109375 17.564 0.916016 17.564 1.90859V19.1461C17.4929 20.1414 16.7301 20.8879 15.8605 20.8879ZM16.1695 1.64062C14.8488 1.90039 12.9101 3.44531 12.9101 5.02305V12.4086H14.5179V19.3867H16.1722L16.1695 1.64062ZM6.7113 11.6156V19.0859C6.73591 19.5016 6.57732 19.9828 6.26833 20.3328C5.95662 20.6883 5.51638 20.8879 5.06521 20.8879H3.88943C2.96521 20.8879 2.21326 20.0812 2.21326 19.0859V11.602C1.1031 11.0277 0.435913 10.0598 0.435913 8.96328V0.385547H2.0574V8.96328C2.0574 9.35977 2.74373 9.77539 3.41638 9.99961L3.60505 10.2184V19.157H5.31677V10.1992L5.75427 9.99414C6.42966 9.78906 6.86443 9.38164 6.86443 8.96328V0.385547H8.48591V8.96328C8.48591 10.0898 7.82146 11.0605 6.7113 11.6156ZM3.77732 7.11484V0.456641H5.16912V7.11484H3.77732Z" fill="#FC9637"/>
</svg>
