<svg width="32" height="38" viewBox="0 0 32 38" fill="none" xmlns="http://www.w3.org/2000/svg">
<g filter="url(#filter0_d_913_1690)">
<path d="M26.9972 13.6115C26.9972 9.14412 24.3256 5.29833 20.4937 3.59093C20.4743 3.58264 20.455 3.57435 20.4329 3.5633C20.3942 3.54673 20.3555 3.53015 20.3141 3.51357C18.9879 2.9472 17.532 2.63501 15.9986 2.63501C9.92603 2.63501 5 7.55828 5 13.6336C5 16.3135 5.95868 18.7669 7.55004 20.6759C7.57491 20.7091 7.59977 20.7423 7.6274 20.7726L7.65779 20.8058C7.71305 20.8693 7.76554 20.9301 7.82356 20.9937L7.82632 20.9909L15.109 28.956C15.1891 29.0444 15.2831 29.1162 15.3825 29.1743C15.8384 29.4809 16.4628 29.4146 16.8468 28.9974L23.9444 21.2313L23.9471 21.234C24.0908 21.0848 24.2317 20.9301 24.3671 20.7699L24.3698 20.7671C24.3892 20.7478 24.4058 20.7257 24.4223 20.7036C26.0303 18.7917 27 16.3218 27 13.6281V13.6198C26.9972 13.6171 26.9972 13.6143 26.9972 13.6115Z" fill="#FC9637"/>
<path d="M23.9415 20.8749L23.9362 20.8696L23.7598 21.0626L16.6629 28.8281C16.6627 28.8282 16.6626 28.8284 16.6625 28.8285C16.3625 29.154 15.8759 29.2048 15.5221 28.9668L15.5154 28.9623L15.5085 28.9583C15.4272 28.9109 15.3544 28.8544 15.2943 28.7881L15.2935 28.7873L8.01083 20.8222L7.85825 20.6553L7.84644 20.6418L7.84651 20.6417L7.84208 20.6369L7.81239 20.6045C7.81229 20.6044 7.8122 20.6043 7.8121 20.6042C7.79385 20.584 7.77601 20.5606 7.75004 20.5259L7.75031 20.5258L7.74208 20.5159C6.18668 18.6499 5.25 16.2527 5.25 13.6336C5.25 7.69639 10.0641 2.88501 15.9986 2.88501C17.4977 2.88501 18.9203 3.19015 20.2159 3.74348L20.2159 3.74354L20.2212 3.74569C20.2574 3.76015 20.2915 3.77472 20.3282 3.79041C20.3538 3.80299 20.3762 3.8126 20.3935 3.82001C24.1377 5.48901 26.7472 9.2469 26.7472 13.6115C26.7472 13.6117 26.7472 13.6121 26.7472 13.6125C26.7472 13.6168 26.7469 13.6311 26.75 13.6512C26.7445 16.2749 25.7979 18.6796 24.231 20.5427L24.2307 20.5424L24.2223 20.5536C24.2039 20.5781 24.1978 20.5856 24.1931 20.5903L24.1931 20.5903L24.1903 20.5931L24.1829 20.6005L24.1761 20.6085C24.0997 20.699 24.0214 20.7878 23.9415 20.8749Z" stroke="white" stroke-width="0.5"/>
</g>
<path d="M16.0295 5.36353C11.4753 5.36353 7.77954 9.05932 7.77954 13.6135C7.77954 18.1677 11.4753 21.8635 16.0295 21.8635C20.5837 21.8635 24.2795 18.1677 24.2795 13.6135C24.2795 9.05932 20.5837 5.36353 16.0295 5.36353Z" fill="white"/>
<path d="M16.4571 8.54252C16.4571 8.42215 16.3593 8.32397 16.2386 8.32397C16.1179 8.32397 16.02 8.42215 16.02 8.54252V8.65204V10.9471C16.02 11.0679 16.0019 11.3842 15.5826 11.3842C15.1773 11.3842 15.1456 11.0678 15.1456 10.9471V8.4333L14.7085 8.32397L14.2714 8.4333V10.9471C14.2714 11.0679 14.2532 11.3842 13.8339 11.3842C13.4287 11.3842 13.3969 11.0678 13.3969 10.9471V8.65204V8.54252C13.3969 8.42215 13.299 8.32397 13.1783 8.32397C13.0577 8.32397 12.9598 8.42215 12.9598 8.54252V8.76137C12.9598 8.76137 12.5227 10.8229 12.5227 11.8213C12.5227 12.173 13.1027 12.882 14.1408 13.0805L13.8443 16.9329C13.8375 16.9768 13.834 17.0218 13.834 17.0676C13.834 17.5505 14.2256 17.9418 14.7084 17.9418C15.1913 17.9418 15.5826 17.5505 15.5826 17.0676C15.5826 17.0218 15.5791 16.9768 15.5723 16.9329L15.276 13.0801C16.2987 12.8837 16.8942 12.1903 16.8942 11.8214C16.8942 10.843 16.4571 8.76142 16.4571 8.76142C16.4571 8.76142 16.4571 8.62466 16.4571 8.54252ZM20.3908 12.2587C20.3678 10.3976 19.566 9.03848 19.0179 8.53644C18.9414 8.40921 18.802 8.32399 18.6429 8.32399C18.4014 8.32399 18.2058 8.51998 18.2058 8.76142V9.19882V17.0676H18.2432C18.2191 17.1361 18.2058 17.2095 18.2058 17.2862C18.2058 17.6483 18.4993 17.9418 18.8614 17.9418C19.2238 17.9418 19.5173 17.6483 19.5173 17.2862C19.5173 17.2095 19.504 17.136 19.4799 17.0676H19.5173V14.8816C19.5173 14.8816 20.3915 14.8044 20.3915 14.0074V12.2587H20.3908Z" fill="#FC9637"/>
<defs>
<filter id="filter0_d_913_1690" x="1" y="2.63501" width="30" height="34.73" filterUnits="userSpaceOnUse" color-interpolation-filters="sRGB">
<feFlood flood-opacity="0" result="BackgroundImageFix"/>
<feColorMatrix in="SourceAlpha" type="matrix" values="0 0 0 0 0 0 0 0 0 0 0 0 0 0 0 0 0 0 127 0" result="hardAlpha"/>
<feOffset dy="4"/>
<feGaussianBlur stdDeviation="2"/>
<feComposite in2="hardAlpha" operator="out"/>
<feColorMatrix type="matrix" values="0 0 0 0 0 0 0 0 0 0 0 0 0 0 0 0 0 0 0.25 0"/>
<feBlend mode="normal" in2="BackgroundImageFix" result="effect1_dropShadow_913_1690"/>
<feBlend mode="normal" in="SourceGraphic" in2="effect1_dropShadow_913_1690" result="shape"/>
</filter>
</defs>
</svg>
