<svg width="32" height="32" viewBox="0 0 32 32" fill="none" xmlns="http://www.w3.org/2000/svg">
<path d="M23.9415 20.8749L23.9362 20.8696L23.7598 21.0626L16.6629 28.8281C16.6627 28.8282 16.6626 28.8284 16.6625 28.8285C16.3625 29.154 15.8759 29.2048 15.5221 28.9668L15.5154 28.9623L15.5085 28.9583C15.4272 28.9109 15.3544 28.8544 15.2943 28.7881L15.2935 28.7873L8.01083 20.8222L7.85825 20.6553L7.84644 20.6418L7.84651 20.6417L7.84208 20.6369L7.81239 20.6045C7.81229 20.6044 7.8122 20.6043 7.8121 20.6042C7.79385 20.584 7.77601 20.5606 7.75004 20.5259L7.75031 20.5258L7.74208 20.5159C6.18668 18.6499 5.25 16.2527 5.25 13.6336C5.25 7.69639 10.0641 2.88501 15.9986 2.88501C17.4977 2.88501 18.9203 3.19015 20.2159 3.74348L20.2159 3.74354L20.2212 3.74569C20.2574 3.76015 20.2915 3.77472 20.3282 3.79041C20.3538 3.80299 20.3762 3.8126 20.3935 3.82001C24.1377 5.48901 26.7472 9.2469 26.7472 13.6115C26.7472 13.6117 26.7472 13.6121 26.7472 13.6125C26.7472 13.6168 26.7469 13.6311 26.75 13.6512C26.7445 16.2749 25.7979 18.6796 24.231 20.5427L24.2307 20.5424L24.2223 20.5536C24.2039 20.5781 24.1978 20.5856 24.1931 20.5903L24.1931 20.5903L24.1903 20.5931L24.1829 20.6005L24.1761 20.6085C24.0997 20.699 24.0214 20.7878 23.9415 20.8749Z" fill="#00ADE9" stroke="white" stroke-width="0.5"/>
<path d="M16 9C13.2399 9 11 11.2399 11 14C11 16.7601 13.2399 19 16 19C18.7601 19 21 16.7601 21 14C21 11.2399 18.7601 9 16 9Z" fill="white"/>
</svg>
