<svg width="32" height="38" viewBox="0 0 32 38" fill="none" xmlns="http://www.w3.org/2000/svg">
<g filter="url(#filter0_d_913_1696)">
<path d="M26.9972 13.6115C26.9972 9.14412 24.3256 5.29833 20.4937 3.59093C20.4743 3.58264 20.455 3.57435 20.4329 3.5633C20.3942 3.54673 20.3555 3.53015 20.3141 3.51357C18.9879 2.9472 17.532 2.63501 15.9986 2.63501C9.92603 2.63501 5 7.55828 5 13.6336C5 16.3135 5.95868 18.7669 7.55004 20.6759C7.57491 20.7091 7.59977 20.7423 7.6274 20.7726L7.65779 20.8058C7.71305 20.8693 7.76554 20.9301 7.82356 20.9937L7.82632 20.9909L15.109 28.956C15.1891 29.0444 15.2831 29.1162 15.3825 29.1743C15.8384 29.4809 16.4628 29.4146 16.8468 28.9974L23.9444 21.2313L23.9471 21.234C24.0908 21.0848 24.2317 20.9301 24.3671 20.7699L24.3698 20.7671C24.3892 20.7478 24.4058 20.7257 24.4223 20.7036C26.0303 18.7917 27 16.3218 27 13.6281V13.6198C26.9972 13.6171 26.9972 13.6143 26.9972 13.6115Z" fill="#FC9637"/>
<path d="M23.9415 20.8749L23.9362 20.8696L23.7598 21.0626L16.6629 28.8281C16.6627 28.8282 16.6626 28.8284 16.6625 28.8285C16.3625 29.154 15.8759 29.2048 15.5221 28.9668L15.5154 28.9623L15.5085 28.9583C15.4272 28.9109 15.3544 28.8544 15.2943 28.7881L15.2935 28.7873L8.01083 20.8222L7.85825 20.6553L7.84644 20.6418L7.84651 20.6417L7.84208 20.6369L7.81239 20.6045C7.81229 20.6044 7.8122 20.6043 7.8121 20.6042C7.79385 20.584 7.77601 20.5606 7.75004 20.5259L7.75031 20.5258L7.74208 20.5159C6.18668 18.6499 5.25 16.2527 5.25 13.6336C5.25 7.69639 10.0641 2.88501 15.9986 2.88501C17.4977 2.88501 18.9203 3.19015 20.2159 3.74348L20.2159 3.74354L20.2212 3.74569C20.2574 3.76015 20.2915 3.77472 20.3282 3.79041C20.3538 3.80299 20.3762 3.8126 20.3935 3.82001C24.1377 5.48901 26.7472 9.2469 26.7472 13.6115C26.7472 13.6117 26.7472 13.6121 26.7472 13.6125C26.7472 13.6168 26.7469 13.6311 26.75 13.6512C26.7445 16.2749 25.7979 18.6796 24.231 20.5427L24.2307 20.5424L24.2223 20.5536C24.2039 20.5781 24.1978 20.5856 24.1931 20.5903L24.1931 20.5903L24.1903 20.5931L24.1829 20.6005L24.1761 20.6085C24.0997 20.699 24.0214 20.7878 23.9415 20.8749Z" stroke="white" stroke-width="0.5"/>
</g>
<path d="M16.0295 5.36353C11.4753 5.36353 7.77954 9.05932 7.77954 13.6135C7.77954 18.1677 11.4753 21.8635 16.0295 21.8635C20.5837 21.8635 24.2795 18.1677 24.2795 13.6135C24.2795 9.05932 20.5837 5.36353 16.0295 5.36353Z" fill="white"/>
<path d="M16.898 9.48853C17.2577 9.48853 17.5493 9.78012 17.5493 10.1398V11.6932V14.6448C17.4675 14.5081 17.6855 14.7274 17.5493 14.6448C17.541 14.4857 17.631 14.7815 17.5493 14.6448V17.7385H11.9045V10.1398C11.9045 9.78012 12.1961 9.48853 12.5559 9.48853H16.898ZM17.5493 12.455V17.0872L17.4407 17.025V13.7613C17.4407 13.7111 17.4291 13.6616 17.4068 13.6166C17.3844 13.5716 17.352 13.5323 17.312 13.502L17.284 13.4829L17.5493 12.455ZM16.898 10.1398H12.5559V17.0872H16.898V10.1398ZM15.8124 13.8306V14.4819H13.6414V13.8306H15.8124ZM15.8124 11.6596V12.3109H13.6414V11.6596H15.8124Z" fill="#FC9637"/>
<path d="M12.2483 9.83228H17.0608V11.8948V13.6135V17.3948H12.2483V9.83228Z" fill="#FC9637"/>
<path d="M13.6233 11.8948H15.8233" stroke="white"/>
<path d="M13.6233 14.301H15.8233" stroke="white"/>
<path d="M20.1545 17.7385H17.4045V11.7315C17.4045 11.6529 17.4909 11.605 17.5575 11.6467L20.1545 13.2698V17.7385Z" fill="#FC9637" fill-opacity="0.6"/>
<defs>
<filter id="filter0_d_913_1696" x="1" y="2.63501" width="30" height="34.73" filterUnits="userSpaceOnUse" color-interpolation-filters="sRGB">
<feFlood flood-opacity="0" result="BackgroundImageFix"/>
<feColorMatrix in="SourceAlpha" type="matrix" values="0 0 0 0 0 0 0 0 0 0 0 0 0 0 0 0 0 0 127 0" result="hardAlpha"/>
<feOffset dy="4"/>
<feGaussianBlur stdDeviation="2"/>
<feComposite in2="hardAlpha" operator="out"/>
<feColorMatrix type="matrix" values="0 0 0 0 0 0 0 0 0 0 0 0 0 0 0 0 0 0 0.25 0"/>
<feBlend mode="normal" in2="BackgroundImageFix" result="effect1_dropShadow_913_1696"/>
<feBlend mode="normal" in="SourceGraphic" in2="effect1_dropShadow_913_1696" result="shape"/>
</filter>
</defs>
</svg>
