<svg width="22" height="21" viewBox="0 0 22 21" fill="none" xmlns="http://www.w3.org/2000/svg">
<path d="M13.2105 0C14.1262 0 14.8684 0.742245 14.8684 1.6579V5.61198L20.3028 8.90834C20.6495 9.11859 20.9395 9.4104 21.1475 9.75836C21.3556 10.1063 21.4754 10.4999 21.4966 10.9047L21.5 11.0346V21H0.5V1.6579C0.5 0.742245 1.24225 0 2.1579 0H13.2105ZM14.8684 7.55115V19.3421H19.8421V11.0346C19.8421 10.9068 19.8125 10.7806 19.7557 10.6661C19.6988 10.5515 19.6163 10.4517 19.5144 10.3744L19.443 10.3259L14.8684 7.55115ZM13.2105 1.6579H2.1579V19.3421H13.2105V1.6579ZM10.4474 11.0526V12.7105H4.92104V11.0526H10.4474ZM10.4474 5.52631V7.18421H4.92104V5.52631H10.4474Z" fill="#FC9637"/>
</svg>
