<svg width="57" height="54" viewBox="0 0 57 54" fill="none" xmlns="http://www.w3.org/2000/svg">
<path d="M13.9312 0.0015625C14.2187 -0.0109375 14.5062 0.0515625 14.7625 0.189062C15.2812 0.470312 15.6062 1.01406 15.6062 1.60781L15.6437 8.97656H38.0875C47.95 8.97656 56.0437 17.0703 56.0437 26.9328V53.8641H47.0687V26.9328C47.0687 21.9203 43.1062 17.9578 38.0937 17.9578H15.6437V25.3266C15.6437 25.9203 15.3187 26.4703 14.8 26.7453C14.2812 27.0266 13.65 26.9953 13.1562 26.6641C6.79995 22.3703 0.568703 14.7328 0.343704 14.4453C0.112453 14.1578 -4.57764e-05 13.8016 -4.57764e-05 13.4453C-4.57764e-05 13.0891 0.118702 12.7391 0.343704 12.4453C0.568703 12.1578 6.7687 4.57031 13.1187 0.270312C13.3687 0.107812 13.65 0.0140625 13.9312 0.0015625Z" fill="white"/>
</svg>
