<svg width="48" height="76" viewBox="0 0 48 76" fill="none" xmlns="http://www.w3.org/2000/svg">
<path d="M10.9725 28.8323C10.817 28.8325 10.6653 28.7834 10.5394 28.6921C10.4636 28.6379 10.3995 28.569 10.3509 28.4896C10.3023 28.4101 10.2703 28.3216 10.2567 28.2294C10.2431 28.1373 10.2482 28.0433 10.2717 27.9532C10.2953 27.8631 10.3367 27.7786 10.3936 27.7048L23.4218 10.7813C23.4907 10.6938 23.5787 10.6231 23.6789 10.5744C23.7792 10.5258 23.8892 10.5005 24.0006 10.5005C24.1121 10.5005 24.2221 10.5258 24.3223 10.5744C24.4226 10.6231 24.5105 10.6938 24.5795 10.7813L37.6063 27.7048C37.6996 27.8258 37.7504 27.9742 37.7506 28.127C37.7481 28.3164 37.6705 28.497 37.5349 28.6293C37.3993 28.7615 37.2168 28.8345 37.0274 28.8323H28.0115V65.4995H19.9898V28.8323H10.9739H10.9725Z" fill="white"/>
</svg>
