<svg width="28" height="28" viewBox="0 0 28 28" fill="none" xmlns="http://www.w3.org/2000/svg">
<rect width="28" height="28" rx="14" fill="#FF8A00"/>
<path d="M7.1783 14.7718C7.05233 14.7719 6.92997 14.7298 6.8308 14.6521C6.73164 14.5744 6.66142 14.4657 6.63139 14.3434C6.60136 14.221 6.61327 14.0921 6.6652 13.9774C6.71713 13.8626 6.80608 13.7686 6.91779 13.7104L19.5598 7.12036C19.6921 7.05139 19.8464 7.0378 19.9887 7.08258C20.1311 7.12736 20.2498 7.22685 20.3187 7.35916C20.3877 7.49147 20.4013 7.64576 20.3565 7.78808C20.3117 7.93041 20.2123 8.04912 20.0799 8.1181L7.43775 14.708C7.35768 14.7498 7.26867 14.7717 7.1783 14.7718Z" fill="white"/>
<path d="M15.698 21.8345C15.6103 21.8344 15.5237 21.8138 15.4454 21.7743C15.367 21.7348 15.2989 21.6775 15.2467 21.607C15.1944 21.5365 15.1593 21.4547 15.1443 21.3683C15.1293 21.2818 15.1347 21.193 15.1601 21.109L19.2847 7.46241C19.3287 7.32062 19.427 7.20197 19.5581 7.13235C19.6892 7.06272 19.8425 7.04775 19.9847 7.09072C20.1268 7.13368 20.2461 7.23109 20.3167 7.3617C20.3873 7.49231 20.4034 7.64553 20.3615 7.78796L16.2363 21.4354C16.2012 21.5509 16.13 21.652 16.033 21.7238C15.9361 21.7957 15.8187 21.8345 15.698 21.8345ZM13.8931 15.2029C13.8812 15.2029 13.8692 15.2029 13.8571 15.2017L7.15172 14.7777C7.07799 14.7731 7.00589 14.754 6.93954 14.7215C6.87319 14.6891 6.81388 14.6438 6.76501 14.5884C6.71614 14.533 6.67866 14.4685 6.65471 14.3987C6.63076 14.3288 6.62081 14.2549 6.62543 14.1811C6.63005 14.1074 6.64914 14.0353 6.68162 13.9689C6.7141 13.9026 6.75933 13.8433 6.81473 13.7944C6.87013 13.7456 6.93461 13.7081 7.0045 13.6841C7.07438 13.6602 7.1483 13.6502 7.22203 13.6548L13.9281 14.079C14.0741 14.0879 14.2108 14.1534 14.3094 14.2615C14.4079 14.3696 14.4605 14.5118 14.4559 14.658C14.4513 14.8042 14.39 14.9429 14.2849 15.0446C14.1798 15.1463 14.0392 15.2031 13.8929 15.2029H13.8931Z" fill="white"/>
<path d="M8.5 14L19.5 8L15.5 20.5L13.5 14.5L8.5 14Z" fill="white"/>
<path d="M15.6899 21.828C15.5664 21.8279 15.4464 21.7872 15.3483 21.7122C15.2502 21.6371 15.1796 21.5318 15.1473 21.4126L13.3496 14.788C13.3302 14.7167 13.3251 14.6423 13.3345 14.569C13.344 14.4957 13.3677 14.425 13.4044 14.3609C13.4412 14.2968 13.4902 14.2406 13.5486 14.1955C13.6071 14.1503 13.6739 14.1171 13.7452 14.0978C13.8165 14.0784 13.8909 14.0733 13.9642 14.0827C14.0374 14.0921 14.1081 14.1159 14.1722 14.1526C14.2363 14.1893 14.2925 14.2383 14.3377 14.2968C14.3828 14.3553 14.416 14.4221 14.4354 14.4933L16.2324 21.118C16.2517 21.1893 16.2568 21.2637 16.2474 21.337C16.238 21.4102 16.2142 21.4809 16.1775 21.545C16.1407 21.6091 16.0917 21.6653 16.0333 21.7105C15.9748 21.7556 15.908 21.7888 15.8367 21.8081C15.7889 21.8213 15.7395 21.828 15.6899 21.828Z" fill="white"/>
</svg>
