<svg width="44" height="44" viewBox="0 0 44 44" fill="none" xmlns="http://www.w3.org/2000/svg">
<path fill-rule="evenodd" clip-rule="evenodd" d="M0 21.9999C0 9.86825 9.86825 0 21.9999 0C34.1316 0 43.9999 9.86825 43.9999 21.9999C43.9999 34.1316 34.1316 43.9999 21.9999 43.9999C9.86825 43.9999 0 34.1316 0 21.9999ZM3.15683 21.9999C3.15683 32.3891 11.6108 40.8431 21.9999 40.8431C32.3891 40.8431 40.8431 32.3891 40.8431 21.9999C40.8431 11.6108 32.3891 3.15683 21.9999 3.15683C11.6108 3.15683 3.15683 11.6108 3.15683 21.9999ZM16.3178 14.954C16.3178 14.1742 17.0501 13.546 17.9498 13.546C18.8464 13.546 19.5788 14.1742 19.5788 14.954V29.046C19.5788 29.8226 18.8495 30.454 17.9498 30.454C17.047 30.454 16.3178 29.8226 16.3178 29.046V14.954ZM24.4213 14.954C24.4213 14.1742 25.1506 13.546 26.0503 13.546C26.95 13.546 27.6823 14.1742 27.6823 14.954V29.046C27.6823 29.8226 26.9531 30.454 26.0503 30.454C25.1474 30.454 24.4213 29.8226 24.4213 29.046V14.954Z" fill="#999999"/>
</svg>
