<svg width="28" height="28" viewBox="0 0 28 28" fill="none" xmlns="http://www.w3.org/2000/svg">
<path d="M24.5 10.4492H3.50005C3.3144 10.4492 3.13635 10.523 3.00507 10.6542C2.8738 10.7855 2.80005 10.9636 2.80005 11.1492C2.80005 11.3349 2.8738 11.5129 3.00507 11.6442C3.13635 11.7755 3.3144 11.8492 3.50005 11.8492H4.69425L5.91925 22.2764C5.91925 23.3656 6.71865 24.2518 7.70285 24.2518H20.2972C21.28 24.2518 22.0808 23.3656 22.0766 22.345L23.3058 11.8478H24.5C24.6801 11.8398 24.8501 11.7626 24.9747 11.6323C25.0992 11.502 25.1688 11.3288 25.1688 11.1485C25.1688 10.9683 25.0992 10.795 24.9747 10.6647C24.8501 10.5345 24.6801 10.4573 24.5 10.4492ZM20.8054 22.2764C20.8054 22.7146 20.538 23.0198 20.2972 23.0198H7.70285C7.46345 23.0198 7.19465 22.7146 7.19045 22.2078L5.97805 11.8492H22.0234L20.8054 22.2764Z" fill="#37BAC6" stroke="#37BAC6" stroke-width="0.2"/>
<path d="M10.6848 20.2482C10.8705 20.2482 11.0485 20.1745 11.1798 20.0432C11.3111 19.9119 11.3848 19.7339 11.3848 19.5482V15.3482C11.3848 15.1626 11.3111 14.9845 11.1798 14.8532C11.0485 14.722 10.8705 14.6482 10.6848 14.6482C10.4992 14.6482 10.3211 14.722 10.1899 14.8532C10.0586 14.9845 9.98483 15.1626 9.98483 15.3482V19.5482C9.98483 19.7339 10.0586 19.9119 10.1899 20.0432C10.3211 20.1745 10.4992 20.2482 10.6848 20.2482ZM14.1736 20.2482C14.3593 20.2482 14.5373 20.1745 14.6686 20.0432C14.7999 19.9119 14.8736 19.7339 14.8736 19.5482V15.3482C14.8736 15.1626 14.7999 14.9845 14.6686 14.8532C14.5373 14.722 14.3593 14.6482 14.1736 14.6482C13.988 14.6482 13.8099 14.722 13.6787 14.8532C13.5474 14.9845 13.4736 15.1626 13.4736 15.3482V19.5482C13.4736 19.7339 13.5474 19.9119 13.6787 20.0432C13.8099 20.1745 13.988 20.2482 14.1736 20.2482ZM17.6638 20.2482C17.8495 20.2482 18.0275 20.1745 18.1588 20.0432C18.2901 19.9119 18.3638 19.7339 18.3638 19.5482V15.3482C18.3638 15.1626 18.2901 14.9845 18.1588 14.8532C18.0275 14.722 17.8495 14.6482 17.6638 14.6482C17.4782 14.6482 17.3001 14.722 17.1689 14.8532C17.0376 14.9845 16.9638 15.1626 16.9638 15.3482V19.5482C16.9638 19.7339 17.0376 19.9119 17.1689 20.0432C17.3001 20.1745 17.4782 20.2482 17.6638 20.2482ZM19.3592 9.45281C19.4122 9.528 19.4794 9.59203 19.5571 9.64124C19.6348 9.69045 19.7214 9.72387 19.812 9.7396C19.9027 9.75533 19.9955 9.75306 20.0852 9.73292C20.175 9.71278 20.2598 9.67516 20.335 9.62221C20.4102 9.56926 20.4743 9.50202 20.5235 9.42432C20.5727 9.34663 20.6061 9.26 20.6218 9.16939C20.6376 9.07878 20.6353 8.98596 20.6151 8.89622C20.595 8.80649 20.5574 8.7216 20.5044 8.64641L17.2606 4.04321C17.2077 3.96801 17.1404 3.90398 17.0627 3.85478C16.9851 3.80557 16.8984 3.77214 16.8078 3.75641C16.7172 3.74068 16.6244 3.74295 16.5347 3.7631C16.4449 3.78324 16.36 3.82086 16.2848 3.87381C16.2096 3.92676 16.1456 3.994 16.0964 4.07169C16.0472 4.14939 16.0138 4.23601 15.998 4.32663C15.9823 4.41724 15.9846 4.51006 16.0047 4.59979C16.0249 4.68953 16.0625 4.77441 16.1154 4.84961L19.3592 9.45281ZM8.64083 9.45281L11.8846 4.84961C11.9856 4.69777 12.0234 4.5125 11.9899 4.33325C11.9563 4.15399 11.8542 3.99489 11.7051 3.88981C11.5561 3.78473 11.3719 3.74196 11.1918 3.77061C11.0117 3.79926 10.8499 3.89706 10.7408 4.04321L7.49563 8.64641C7.44269 8.7216 7.40507 8.80649 7.38492 8.89622C7.36478 8.98596 7.36251 9.07878 7.37824 9.16939C7.39397 9.26 7.42739 9.34663 7.4766 9.42432C7.52581 9.50202 7.58984 9.56926 7.66503 9.62221C7.74023 9.67516 7.82512 9.71278 7.91485 9.73292C8.00458 9.75306 8.09741 9.75533 8.18802 9.7396C8.27863 9.72387 8.36526 9.69045 8.44295 9.64124C8.52064 9.59203 8.58789 9.528 8.64083 9.45281Z" fill="#37BAC6" stroke="#37BAC6" stroke-width="0.2"/>
</svg>
