<svg width="32" height="38" viewBox="0 0 32 38" fill="none" xmlns="http://www.w3.org/2000/svg">
<g filter="url(#filter0_d_913_1697)">
<path d="M26.9972 13.6115C26.9972 9.14411 24.3256 5.29833 20.4937 3.59093C20.4743 3.58264 20.455 3.57435 20.4329 3.5633C20.3942 3.54673 20.3555 3.53015 20.3141 3.51357C18.9879 2.9472 17.532 2.63501 15.9986 2.63501C9.92603 2.63501 5 7.55828 5 13.6336C5 16.3135 5.95868 18.7669 7.55004 20.6759C7.57491 20.7091 7.59977 20.7423 7.6274 20.7726L7.65779 20.8058C7.71305 20.8693 7.76554 20.9301 7.82356 20.9937L7.82632 20.9909L15.109 28.956C15.1891 29.0444 15.2831 29.1162 15.3825 29.1743C15.8384 29.4809 16.4628 29.4146 16.8468 28.9974L23.9444 21.2313L23.9471 21.234C24.0908 21.0848 24.2317 20.9301 24.3671 20.7699L24.3698 20.7671C24.3892 20.7478 24.4058 20.7257 24.4223 20.7036C26.0303 18.7917 27 16.3218 27 13.6281V13.6198C26.9972 13.6171 26.9972 13.6143 26.9972 13.6115Z" fill="#37BAC6"/>
<path d="M23.9415 20.8749L23.9362 20.8696L23.7598 21.0626L16.6629 28.8281C16.6627 28.8282 16.6626 28.8284 16.6625 28.8285C16.3625 29.154 15.8759 29.2048 15.5221 28.9668L15.5154 28.9623L15.5085 28.9583C15.4272 28.9109 15.3544 28.8544 15.2943 28.7881L15.2935 28.7873L8.01083 20.8222L7.85825 20.6553L7.84644 20.6418L7.84651 20.6417L7.84208 20.6369L7.81238 20.6045C7.81227 20.6044 7.81216 20.6042 7.81205 20.6041C7.79382 20.584 7.77599 20.5605 7.75004 20.5259L7.75031 20.5258L7.74208 20.5159C6.18668 18.6499 5.25 16.2527 5.25 13.6336C5.25 7.69639 10.0641 2.88501 15.9986 2.88501C17.4977 2.88501 18.9203 3.19015 20.2159 3.74348L20.2159 3.74354L20.2212 3.74569C20.2574 3.76015 20.2915 3.77472 20.3281 3.79041C20.3538 3.80299 20.3762 3.8126 20.3935 3.82001C24.1377 5.48902 26.7472 9.2469 26.7472 13.6115C26.7472 13.6117 26.7472 13.6121 26.7472 13.6125C26.7472 13.6168 26.7469 13.6311 26.75 13.6512C26.7445 16.2749 25.7979 18.6796 24.231 20.5427L24.2307 20.5424L24.2223 20.5536C24.2039 20.5781 24.1978 20.5856 24.1931 20.5903L24.1931 20.5903L24.1904 20.593L24.1829 20.6005L24.1761 20.6085C24.0997 20.699 24.0214 20.7878 23.9415 20.8749Z" stroke="white" stroke-width="0.5"/>
</g>
<path d="M16.0295 5.36353C11.4753 5.36353 7.77954 9.05932 7.77954 13.6135C7.77954 18.1677 11.4753 21.8635 16.0295 21.8635C20.5837 21.8635 24.2795 18.1677 24.2795 13.6135C24.2795 9.05932 20.5837 5.36353 16.0295 5.36353Z" fill="white"/>
<path d="M19.6578 12.5649H12.0186L13.0371 17.6578H19.1486L19.6578 12.5649Z" fill="#37BAC6"/>
<path d="M20.7011 11.9966H11.3129C11.2299 11.9966 11.1503 12.0296 11.0917 12.0882C11.033 12.1469 11 12.2265 11 12.3095C11 12.3925 11.033 12.4721 11.0917 12.5308C11.1503 12.5895 11.2299 12.6225 11.3129 12.6225H11.8468L12.3944 17.284C12.3944 17.7709 12.7518 18.1671 13.1918 18.1671H18.8222C19.2615 18.1671 19.6195 17.7709 19.6177 17.3146L20.1672 12.6218H20.7011C20.7815 12.6182 20.8575 12.5837 20.9132 12.5255C20.9689 12.4672 21 12.3898 21 12.3092C21 12.2286 20.9689 12.1512 20.9132 12.0929C20.8575 12.0347 20.7815 12.0002 20.7011 11.9966ZM19.0494 17.284C19.0494 17.4799 18.9298 17.6163 18.8222 17.6163H13.1918C13.0848 17.6163 12.9646 17.4799 12.9627 17.2533L12.4207 12.6225H19.5939L19.0494 17.284Z" fill="#37BAC6" stroke="#37BAC6" stroke-width="0.2"/>
<path d="M14.525 16.3773C14.6079 16.3773 14.6875 16.3444 14.7462 16.2857C14.8049 16.227 14.8379 16.1474 14.8379 16.0644V14.1868C14.8379 14.1038 14.8049 14.0242 14.7462 13.9655C14.6875 13.9068 14.6079 13.8738 14.525 13.8738C14.442 13.8738 14.3624 13.9068 14.3037 13.9655C14.245 14.0242 14.212 14.1038 14.212 14.1868V16.0644C14.212 16.1474 14.245 16.227 14.3037 16.2857C14.3624 16.3444 14.442 16.3773 14.525 16.3773ZM16.0846 16.3773C16.1676 16.3773 16.2472 16.3444 16.3059 16.2857C16.3646 16.227 16.3976 16.1474 16.3976 16.0644V14.1868C16.3976 14.1038 16.3646 14.0242 16.3059 13.9655C16.2472 13.9068 16.1676 13.8738 16.0846 13.8738C16.0016 13.8738 15.922 13.9068 15.8634 13.9655C15.8047 14.0242 15.7717 14.1038 15.7717 14.1868V16.0644C15.7717 16.1474 15.8047 16.227 15.8634 16.2857C15.922 16.3444 16.0016 16.3773 16.0846 16.3773ZM17.6449 16.3773C17.7279 16.3773 17.8075 16.3444 17.8662 16.2857C17.9249 16.227 17.9579 16.1474 17.9579 16.0644V14.1868C17.9579 14.1038 17.9249 14.0242 17.8662 13.9655C17.8075 13.9068 17.7279 13.8738 17.6449 13.8738C17.5619 13.8738 17.4823 13.9068 17.4237 13.9655C17.365 14.0242 17.332 14.1038 17.332 14.1868V16.0644C17.332 16.1474 17.365 16.227 17.4237 16.2857C17.4823 16.3444 17.5619 16.3773 17.6449 16.3773ZM18.4029 11.5512C18.4265 11.5848 18.4566 11.6134 18.4913 11.6354C18.5261 11.6574 18.5648 11.6724 18.6053 11.6794C18.6458 11.6865 18.6873 11.6854 18.7274 11.6764C18.7675 11.6674 18.8055 11.6506 18.8391 11.6269C18.8727 11.6033 18.9013 11.5732 18.9233 11.5385C18.9453 11.5037 18.9603 11.465 18.9673 11.4245C18.9743 11.384 18.9733 11.3425 18.9643 11.3024C18.9553 11.2623 18.9385 11.2243 18.9148 11.1907L17.4647 9.13283C17.441 9.09921 17.411 9.07059 17.3762 9.04859C17.3415 9.02659 17.3028 9.01165 17.2623 9.00461C17.2217 8.99758 17.1802 8.9986 17.1401 9.0076C17.1 9.01661 17.0621 9.03342 17.0284 9.0571C16.9948 9.08077 16.9662 9.11083 16.9442 9.14556C16.9222 9.18029 16.9073 9.21902 16.9002 9.25953C16.8932 9.30004 16.8942 9.34153 16.9032 9.38165C16.9122 9.42176 16.929 9.45971 16.9527 9.49333L18.4029 11.5512ZM13.6112 11.5512L15.0613 9.49333C15.1065 9.42545 15.1234 9.34263 15.1084 9.26249C15.0934 9.18235 15.0477 9.11123 14.9811 9.06425C14.9145 9.01727 14.8321 8.99815 14.7516 9.01096C14.6711 9.02377 14.5988 9.06749 14.55 9.13283L13.0992 11.1907C13.0755 11.2243 13.0587 11.2623 13.0497 11.3024C13.0407 11.3425 13.0397 11.384 13.0467 11.4245C13.0538 11.465 13.0687 11.5037 13.0907 11.5385C13.1127 11.5732 13.1413 11.6033 13.1749 11.6269C13.2086 11.6506 13.2465 11.6674 13.2866 11.6764C13.3267 11.6854 13.3682 11.6865 13.4087 11.6794C13.4493 11.6724 13.488 11.6574 13.5227 11.6354C13.5574 11.6134 13.5875 11.5848 13.6112 11.5512Z" fill="#37BAC6" stroke="#37BAC6" stroke-width="0.2"/>
<path d="M14.1162 13.9972C14.1162 13.7687 14.3015 13.5835 14.5299 13.5835V13.5835C14.7584 13.5835 14.9436 13.7687 14.9436 13.9972V16.0618C14.9436 16.2903 14.7584 16.4755 14.5299 16.4755V16.4755C14.3015 16.4755 14.1162 16.2903 14.1162 16.0618V13.9972Z" fill="white"/>
<path d="M15.5836 13.9972C15.5836 13.7687 15.7688 13.5835 15.9973 13.5835V13.5835C16.2258 13.5835 16.411 13.7687 16.411 13.9972V16.0618C16.411 16.2903 16.2258 16.4755 15.9973 16.4755V16.4755C15.7688 16.4755 15.5836 16.2903 15.5836 16.0618V13.9972Z" fill="white"/>
<path d="M17.3025 13.9972C17.3025 13.7687 17.4878 13.5835 17.7162 13.5835V13.5835C17.9447 13.5835 18.13 13.7687 18.13 13.9972V16.0618C18.13 16.2903 17.9447 16.4755 17.7162 16.4755V16.4755C17.4878 16.4755 17.3025 16.2903 17.3025 16.0618V13.9972Z" fill="white"/>
<defs>
<filter id="filter0_d_913_1697" x="1" y="2.63501" width="30" height="34.73" filterUnits="userSpaceOnUse" color-interpolation-filters="sRGB">
<feFlood flood-opacity="0" result="BackgroundImageFix"/>
<feColorMatrix in="SourceAlpha" type="matrix" values="0 0 0 0 0 0 0 0 0 0 0 0 0 0 0 0 0 0 127 0" result="hardAlpha"/>
<feOffset dy="4"/>
<feGaussianBlur stdDeviation="2"/>
<feComposite in2="hardAlpha" operator="out"/>
<feColorMatrix type="matrix" values="0 0 0 0 0 0 0 0 0 0 0 0 0 0 0 0 0 0 0.25 0"/>
<feBlend mode="normal" in2="BackgroundImageFix" result="effect1_dropShadow_913_1697"/>
<feBlend mode="normal" in="SourceGraphic" in2="effect1_dropShadow_913_1697" result="shape"/>
</filter>
</defs>
</svg>
