<svg width="60" height="60" viewBox="0 0 60 60" fill="none" xmlns="http://www.w3.org/2000/svg">
<path d="M44.0905 3.06943C43.803 3.05693 43.5155 3.11943 43.2593 3.25693C42.7405 3.53818 42.4155 4.08193 42.4155 4.67568L42.378 12.0444H19.9343C10.0718 12.0444 1.97803 20.1382 1.97803 30.0007V56.9319H10.953V30.0007C10.953 24.9882 14.9155 21.0257 19.928 21.0257H42.378V28.3944C42.378 28.9882 42.703 29.5382 43.2218 29.8132C43.7405 30.0944 44.3718 30.0632 44.8655 29.7319C51.2218 25.4382 57.453 17.8007 57.678 17.5132C57.9093 17.2257 58.0218 16.8694 58.0218 16.5132C58.0218 16.1569 57.903 15.8069 57.678 15.5132C57.453 15.2257 51.253 7.63818 44.903 3.33818C44.653 3.17568 44.3718 3.08193 44.0905 3.06943Z" fill="white"/>
</svg>
