<svg width="20" height="20" viewBox="0 0 20 20" fill="none" xmlns="http://www.w3.org/2000/svg">
<path d="M17.0706 2.92937C15.1811 1.03987 12.6714 0 10 0C7.32864 0 4.81887 1.03987 2.92937 2.92937C1.03987 4.81887 0 7.32864 0 10C0 12.6714 1.03987 15.1811 2.92937 17.0706C4.81887 18.9601 7.32864 20 10 20C12.6714 20 15.1811 18.9601 17.0706 17.0706C18.9601 15.1811 20 12.6714 20 10C20 7.32864 18.9601 4.81887 17.0706 2.92937ZM15.3349 9.09825L13.3333 11.0503L13.8051 13.8051C13.865 14.1595 13.7243 14.5087 13.4324 14.7198C13.2682 14.8397 13.0753 14.8997 12.8825 14.8997C12.7339 14.8997 12.5854 14.8632 12.4472 14.7902L9.97133 13.4897L7.49544 14.7902C7.17748 14.957 6.79958 14.9309 6.51029 14.7198C6.22101 14.5087 6.07766 14.1569 6.13761 13.8051L6.61194 11.0477L4.61037 9.09565C4.35236 8.84545 4.26114 8.47798 4.37321 8.13657C4.48527 7.79515 4.77456 7.55017 5.12901 7.50065L7.89419 7.0993L9.13213 4.59213C9.29111 4.26896 9.61168 4.07089 9.97133 4.07089C10.331 4.07089 10.6516 4.27157 10.8105 4.59213L12.0485 7.0993L14.8137 7.50065C15.1681 7.55278 15.46 7.79515 15.5695 8.13917C15.6841 8.47798 15.5929 8.84545 15.3349 9.09825Z" fill="black"/>
</svg>
