<svg width="14" height="14" viewBox="0 0 14 14" fill="none" xmlns="http://www.w3.org/2000/svg">
<g clip-path="url(#clip0_88_348)">
<path d="M6.99997 1.81984C9.85625 1.81984 12.18 4.14356 12.18 6.99984C12.18 9.85612 9.85625 12.1798 6.99997 12.1798C4.14369 12.1798 1.81997 9.85612 1.81997 6.99984C1.81997 4.14356 4.14369 1.81984 6.99997 1.81984ZM6.99997 0.839844C3.5979 0.839844 0.839966 3.59777 0.839966 6.99984C0.839966 10.4019 3.5979 13.1598 6.99997 13.1598C10.402 13.1598 13.16 10.4019 13.16 6.99984C13.16 3.59777 10.402 0.839844 6.99997 0.839844Z" fill="#666666"/>
<path d="M9.12105 8.29508L7.28005 6.45408V3.57008C7.28005 3.29708 7.06305 3.08008 6.79005 3.08008C6.51705 3.08008 6.30005 3.29708 6.30005 3.57008V6.86008L8.42805 8.99508C8.52255 9.08958 8.64855 9.13683 8.77455 9.13683C8.90055 9.13683 9.02655 9.08958 9.12105 8.99508C9.31705 8.79908 9.31705 8.49108 9.12105 8.29508Z" fill="#666666"/>
</g>
<defs>
<clipPath id="clip0_88_348">
<rect width="14" height="14" fill="white"/>
</clipPath>
</defs>
</svg>
