<svg width="20" height="23" viewBox="0 0 20 23" fill="none" xmlns="http://www.w3.org/2000/svg">
<path d="M7.91664 8H2.01396C1.72764 7.99999 1.4446 8.06061 1.18373 8.17783C0.922863 8.29504 0.690161 8.46615 0.501149 8.67974C0.312137 8.89333 0.17116 9.1445 0.0876212 9.41648C0.00408257 9.68846 -0.0200967 9.97501 0.0166962 10.257L1.45259 21.257C1.51547 21.7389 1.75286 22.1816 2.12042 22.5024C2.48797 22.8231 2.96055 23 3.44986 23H6.48075C6.97005 23 7.44263 22.8231 7.81019 22.5024C8.17774 22.1816 8.41514 21.7389 8.47801 21.257L9.91391 10.257C9.9507 9.97501 9.92652 9.68846 9.84298 9.41648C9.75944 9.1445 9.61847 8.89333 9.42945 8.67974C9.24044 8.46615 9.00774 8.29504 8.74687 8.17783C8.48601 8.06061 8.20297 7.99999 7.91664 8ZM7.91664 9.5C7.98826 9.49997 8.05906 9.51512 8.12431 9.54443C8.18956 9.57374 8.24776 9.61654 8.29504 9.66997C8.34231 9.7234 8.37756 9.78623 8.39843 9.85426C8.4193 9.9223 8.42532 9.99397 8.41609 10.0645L6.98019 21.0645C6.96441 21.185 6.90502 21.2956 6.81311 21.3757C6.7212 21.4559 6.60306 21.5 6.48075 21.5H3.44986C3.32755 21.5 3.2094 21.4559 3.11749 21.3757C3.02558 21.2956 2.96619 21.185 2.95042 21.0645L1.51452 10.0645C1.50528 9.99397 1.5113 9.9223 1.53217 9.85426C1.55305 9.78623 1.5883 9.7234 1.63557 9.66997C1.68284 9.61654 1.74104 9.57374 1.8063 9.54443C1.87155 9.51512 1.94234 9.49997 2.01396 9.5H7.91664ZM17.986 23H12.0834C11.797 23 11.514 22.9394 11.2531 22.8222C10.9923 22.705 10.7596 22.5338 10.5705 22.3203C10.3815 22.1067 10.2406 21.8555 10.157 21.5835C10.0735 21.3115 10.0493 21.025 10.0861 20.743L11.522 9.743C11.5849 9.26109 11.8223 8.81841 12.1898 8.49764C12.5574 8.17688 13.0299 7.99998 13.5193 8H16.5501C17.0394 7.99998 17.512 8.17688 17.8796 8.49764C18.2471 8.81841 18.4845 9.26109 18.5474 9.743L19.9833 20.743C20.0201 21.025 19.9959 21.3115 19.9124 21.5835C19.8288 21.8555 19.6879 22.1067 19.4989 22.3203C19.3098 22.5338 19.0771 22.705 18.8163 22.8222C18.5554 22.9394 18.2724 23 17.986 23ZM17.986 21.5C18.0577 21.5 18.1285 21.4849 18.1937 21.4556C18.259 21.4263 18.3172 21.3835 18.3644 21.33C18.4117 21.2766 18.447 21.2138 18.4678 21.1457C18.4887 21.0777 18.4947 21.006 18.4855 20.9355L17.0496 9.9355C17.0338 9.81505 16.9744 9.70442 16.8825 9.62428C16.7906 9.54413 16.6725 9.49996 16.5501 9.5H13.5193C13.3969 9.49996 13.2788 9.54413 13.1869 9.62428C13.095 9.70442 13.0356 9.81505 13.0198 9.9355L11.5839 20.9355C11.5747 21.006 11.5807 21.0777 11.6016 21.1457C11.6224 21.2138 11.6577 21.2766 11.705 21.33C11.7522 21.3835 11.8104 21.4263 11.8757 21.4556C11.9409 21.4849 12.0117 21.5 12.0834 21.5H17.986ZM4.9653 0C5.9 0 6.79642 0.368749 7.45735 1.02513C8.11828 1.6815 8.48959 2.57174 8.48959 3.5C8.48959 4.42826 8.11828 5.3185 7.45735 5.97487C6.79642 6.63125 5.9 7 4.9653 7C4.0306 7 3.13419 6.63125 2.47325 5.97487C1.81232 5.3185 1.44101 4.42826 1.44101 3.5C1.44101 2.57174 1.81232 1.6815 2.47325 1.02513C3.13419 0.368749 4.0306 0 4.9653 0ZM4.9653 1.5C4.70084 1.5 4.43896 1.55173 4.19462 1.65224C3.95029 1.75275 3.72828 1.90007 3.54127 2.08579C3.35427 2.2715 3.20593 2.49198 3.10472 2.73463C3.00351 2.97728 2.95142 3.23736 2.95142 3.5C2.95142 3.76264 3.00351 4.02272 3.10472 4.26537C3.20593 4.50802 3.35427 4.7285 3.54127 4.91421C3.72828 5.09993 3.95029 5.24725 4.19462 5.34776C4.43896 5.44827 4.70084 5.5 4.9653 5.5C5.49942 5.5 6.01165 5.28929 6.38933 4.91421C6.76701 4.53914 6.97918 4.03043 6.97918 3.5C6.97918 2.96957 6.76701 2.46086 6.38933 2.08579C6.01165 1.71071 5.49942 1.5 4.9653 1.5ZM15.0347 0C15.9694 0 16.8658 0.368749 17.5267 1.02513C18.1877 1.6815 18.559 2.57174 18.559 3.5C18.559 4.42826 18.1877 5.3185 17.5267 5.97487C16.8658 6.63125 15.9694 7 15.0347 7C14.1 7 13.2036 6.63125 12.5427 5.97487C11.8817 5.3185 11.5104 4.42826 11.5104 3.5C11.5104 2.57174 11.8817 1.6815 12.5427 1.02513C13.2036 0.368749 14.1 0 15.0347 0ZM15.0347 1.5C14.7702 1.5 14.5084 1.55173 14.264 1.65224C14.0197 1.75275 13.7977 1.90007 13.6107 2.08579C13.4237 2.2715 13.2753 2.49198 13.1741 2.73463C13.0729 2.97728 13.0208 3.23736 13.0208 3.5C13.0208 3.76264 13.0729 4.02272 13.1741 4.26537C13.2753 4.50802 13.4237 4.7285 13.6107 4.91421C13.7977 5.09993 14.0197 5.24725 14.264 5.34776C14.5084 5.44827 14.7702 5.5 15.0347 5.5C15.5688 5.5 16.0811 5.28929 16.4587 4.91421C16.8364 4.53914 17.0486 4.03043 17.0486 3.5C17.0486 2.96957 16.8364 2.46086 16.4587 2.08579C16.0811 1.71071 15.5688 1.5 15.0347 1.5Z" fill="#3C2DC0"/>
</svg>
