<svg width="32" height="38" viewBox="0 0 32 38" fill="none" xmlns="http://www.w3.org/2000/svg">
<g filter="url(#filter0_d_913_1694)">
<path d="M26.9972 13.6115C26.9972 9.14412 24.3256 5.29833 20.4937 3.59093C20.4743 3.58264 20.455 3.57435 20.4329 3.5633C20.3942 3.54673 20.3555 3.53015 20.3141 3.51357C18.9879 2.9472 17.532 2.63501 15.9986 2.63501C9.92603 2.63501 5 7.55828 5 13.6336C5 16.3135 5.95868 18.7669 7.55004 20.6759C7.57491 20.7091 7.59977 20.7423 7.6274 20.7726L7.65779 20.8058C7.71305 20.8693 7.76554 20.9301 7.82356 20.9937L7.82632 20.9909L15.109 28.956C15.1891 29.0444 15.2831 29.1162 15.3825 29.1743C15.8384 29.4809 16.4628 29.4146 16.8468 28.9974L23.9444 21.2313L23.9471 21.234C24.0908 21.0848 24.2317 20.9301 24.3671 20.7699L24.3698 20.7671C24.3892 20.7478 24.4058 20.7257 24.4223 20.7036C26.0303 18.7917 27 16.3218 27 13.6281V13.6198C26.9972 13.6171 26.9972 13.6143 26.9972 13.6115Z" fill="#3C2DC0"/>
<path d="M23.9415 20.8749L23.9362 20.8696L23.7598 21.0626L16.6629 28.8281C16.6627 28.8282 16.6626 28.8284 16.6625 28.8285C16.3625 29.154 15.8759 29.2048 15.5221 28.9668L15.5154 28.9623L15.5085 28.9583C15.4272 28.9109 15.3544 28.8544 15.2943 28.7881L15.2935 28.7873L8.01083 20.8222L7.85825 20.6553L7.84644 20.6418L7.84651 20.6417L7.84208 20.6369L7.81239 20.6045C7.81229 20.6044 7.8122 20.6043 7.8121 20.6042C7.79385 20.584 7.77601 20.5606 7.75004 20.5259L7.75031 20.5258L7.74208 20.5159C6.18668 18.6499 5.25 16.2527 5.25 13.6336C5.25 7.69639 10.0641 2.88501 15.9986 2.88501C17.4977 2.88501 18.9203 3.19015 20.2159 3.74348L20.2159 3.74354L20.2212 3.74569C20.2574 3.76015 20.2915 3.77472 20.3282 3.79041C20.3538 3.80299 20.3762 3.8126 20.3935 3.82001C24.1377 5.48901 26.7472 9.2469 26.7472 13.6115C26.7472 13.6117 26.7472 13.6121 26.7472 13.6125C26.7472 13.6168 26.7469 13.6311 26.75 13.6512C26.7445 16.2749 25.7979 18.6796 24.231 20.5427L24.2307 20.5424L24.2223 20.5536C24.2039 20.5781 24.1978 20.5856 24.1931 20.5903L24.1931 20.5903L24.1903 20.5931L24.1829 20.6005L24.1761 20.6085C24.0997 20.699 24.0214 20.7878 23.9415 20.8749Z" stroke="white" stroke-width="0.5"/>
</g>
<path d="M16.0295 5.36353C11.4753 5.36353 7.77954 9.05932 7.77954 13.6135C7.77954 18.1677 11.4753 21.8635 16.0295 21.8635C20.5837 21.8635 24.2795 18.1677 24.2795 13.6135C24.2795 9.05932 20.5837 5.36353 16.0295 5.36353Z" fill="white"/>
<path d="M15.1702 12.101H12.7353C12.6172 12.101 12.5004 12.126 12.3928 12.1744C12.2852 12.2227 12.1892 12.2933 12.1113 12.3814C12.0333 12.4695 11.9751 12.5731 11.9407 12.6853C11.9062 12.7975 11.8963 12.9157 11.9114 13.032L12.5037 17.5695C12.5297 17.7683 12.6276 17.9509 12.7792 18.0832C12.9308 18.2156 13.1258 18.2885 13.3276 18.2885H14.5778C14.7797 18.2885 14.9746 18.2156 15.1262 18.0832C15.2779 17.9509 15.3758 17.7683 15.4017 17.5695L15.994 13.032C16.0092 12.9157 15.9992 12.7975 15.9648 12.6853C15.9303 12.5731 15.8722 12.4695 15.7942 12.3814C15.7162 12.2933 15.6202 12.2227 15.5126 12.1744C15.405 12.126 15.2883 12.101 15.1702 12.101ZM15.1702 12.7198C15.1997 12.7198 15.2289 12.726 15.2558 12.7381C15.2827 12.7502 15.3067 12.7678 15.3262 12.7899C15.3457 12.8119 15.3603 12.8378 15.3689 12.8659C15.3775 12.894 15.38 12.9235 15.3762 12.9526L14.7839 17.4901C14.7774 17.5398 14.7529 17.5855 14.7149 17.6185C14.677 17.6516 14.6283 17.6698 14.5778 17.6698H13.3276C13.2772 17.6698 13.2284 17.6516 13.1905 17.6185C13.1526 17.5855 13.1281 17.5398 13.1216 17.4901L12.5293 12.9526C12.5255 12.9235 12.528 12.894 12.5366 12.8659C12.5452 12.8378 12.5597 12.8119 12.5792 12.7899C12.5987 12.7678 12.6227 12.7502 12.6496 12.7381C12.6766 12.726 12.7058 12.7198 12.7353 12.7198H15.1702ZM19.3238 18.2885H16.8889C16.7708 18.2885 16.6541 18.2635 16.5465 18.2152C16.4388 18.1668 16.3429 18.0962 16.2649 18.0081C16.1869 17.92 16.1288 17.8164 16.0943 17.7042C16.0599 17.592 16.0499 17.4738 16.0651 17.3575L16.6574 12.82C16.6833 12.6212 16.7812 12.4386 16.9328 12.3063C17.0845 12.174 17.2794 12.101 17.4812 12.101H18.7315C18.9333 12.101 19.1283 12.174 19.2799 12.3063C19.4315 12.4386 19.5294 12.6212 19.5553 12.82L20.1477 17.3575C20.1628 17.4738 20.1529 17.592 20.1184 17.7042C20.0839 17.8164 20.0258 17.92 19.9478 18.0081C19.8698 18.0962 19.7739 18.1668 19.6663 18.2152C19.5586 18.2635 19.4419 18.2885 19.3238 18.2885ZM19.3238 17.6698C19.3533 17.6698 19.3825 17.6635 19.4094 17.6514C19.4364 17.6394 19.4604 17.6217 19.4799 17.5997C19.4994 17.5776 19.5139 17.5517 19.5225 17.5236C19.5311 17.4956 19.5336 17.466 19.5298 17.4369L18.9375 12.8994C18.931 12.8497 18.9065 12.8041 18.8686 12.771C18.8307 12.738 18.7819 12.7198 18.7315 12.7198H17.4812C17.4308 12.7198 17.382 12.738 17.3441 12.771C17.3062 12.8041 17.2817 12.8497 17.2752 12.8994L16.6829 17.4369C16.6791 17.466 16.6816 17.4956 16.6902 17.5236C16.6988 17.5517 16.7133 17.5776 16.7328 17.5997C16.7523 17.6217 16.7763 17.6394 16.8033 17.6514C16.8302 17.6635 16.8594 17.6698 16.8889 17.6698H19.3238ZM13.9527 8.80103C14.3383 8.80103 14.7081 8.95313 14.9807 9.22389C15.2533 9.49465 15.4065 9.86187 15.4065 10.2448C15.4065 10.6277 15.2533 10.9949 14.9807 11.2657C14.7081 11.5364 14.3383 11.6885 13.9527 11.6885C13.5672 11.6885 13.1974 11.5364 12.9248 11.2657C12.6521 10.9949 12.499 10.6277 12.499 10.2448C12.499 9.86187 12.6521 9.49465 12.9248 9.22389C13.1974 8.95313 13.5672 8.80103 13.9527 8.80103ZM13.9527 9.41978C13.8436 9.41978 13.7356 9.44111 13.6348 9.48257C13.534 9.52403 13.4425 9.5848 13.3653 9.66141C13.2882 9.73802 13.227 9.82897 13.1852 9.92906C13.1435 10.0292 13.122 10.1364 13.122 10.2448C13.122 10.3531 13.1435 10.4604 13.1852 10.5605C13.227 10.6606 13.2882 10.7515 13.3653 10.8281C13.4425 10.9047 13.534 10.9655 13.6348 11.007C13.7356 11.0484 13.8436 11.0698 13.9527 11.0698C14.173 11.0698 14.3843 10.9829 14.5401 10.8281C14.6959 10.6734 14.7835 10.4636 14.7835 10.2448C14.7835 10.026 14.6959 9.81613 14.5401 9.66141C14.3843 9.50669 14.173 9.41978 13.9527 9.41978ZM18.1064 8.80103C18.4919 8.80103 18.8617 8.95313 19.1343 9.22389C19.407 9.49465 19.5601 9.86187 19.5601 10.2448C19.5601 10.6277 19.407 10.9949 19.1343 11.2657C18.8617 11.5364 18.4919 11.6885 18.1064 11.6885C17.7208 11.6885 17.351 11.5364 17.0784 11.2657C16.8057 10.9949 16.6526 10.6277 16.6526 10.2448C16.6526 9.86187 16.8057 9.49465 17.0784 9.22389C17.351 8.95313 17.7208 8.80103 18.1064 8.80103ZM18.1064 9.41978C17.9973 9.41978 17.8892 9.44111 17.7884 9.48257C17.6877 9.52403 17.5961 9.5848 17.5189 9.66141C17.4418 9.73802 17.3806 9.82897 17.3389 9.92906C17.2971 10.0292 17.2756 10.1364 17.2756 10.2448C17.2756 10.3531 17.2971 10.4604 17.3389 10.5605C17.3806 10.6606 17.4418 10.7515 17.5189 10.8281C17.5961 10.9047 17.6877 10.9655 17.7884 11.007C17.8892 11.0484 17.9973 11.0698 18.1064 11.0698C18.3267 11.0698 18.538 10.9829 18.6938 10.8281C18.8496 10.6734 18.9371 10.4636 18.9371 10.2448C18.9371 10.026 18.8496 9.81613 18.6938 9.66141C18.538 9.50669 18.3267 9.41978 18.1064 9.41978Z" fill="#3C2DC0"/>
<path d="M14.9983 9.83228L13.967 9.14478L12.9358 9.83228V10.8635L13.967 11.2073L14.9983 10.8635V9.83228Z" fill="#3C2DC0"/>
<path d="M19.1233 9.83228L18.092 9.14478L17.0608 9.83228L17.4045 11.2073H18.4358L18.7795 10.8635L19.1233 9.83228Z" fill="#3C2DC0"/>
<path d="M19.1233 12.5823H17.0608L16.3733 17.7385H19.8108L19.1233 12.5823Z" fill="#3C2DC0"/>
<path d="M15.6858 12.5823H12.592H12.2483L12.9358 17.7385H14.9983L15.6858 12.5823Z" fill="#3C2DC0"/>
<defs>
<filter id="filter0_d_913_1694" x="1" y="2.63501" width="30" height="34.73" filterUnits="userSpaceOnUse" color-interpolation-filters="sRGB">
<feFlood flood-opacity="0" result="BackgroundImageFix"/>
<feColorMatrix in="SourceAlpha" type="matrix" values="0 0 0 0 0 0 0 0 0 0 0 0 0 0 0 0 0 0 127 0" result="hardAlpha"/>
<feOffset dy="4"/>
<feGaussianBlur stdDeviation="2"/>
<feComposite in2="hardAlpha" operator="out"/>
<feColorMatrix type="matrix" values="0 0 0 0 0 0 0 0 0 0 0 0 0 0 0 0 0 0 0.25 0"/>
<feBlend mode="normal" in2="BackgroundImageFix" result="effect1_dropShadow_913_1694"/>
<feBlend mode="normal" in="SourceGraphic" in2="effect1_dropShadow_913_1694" result="shape"/>
</filter>
</defs>
</svg>
