<svg width="54" height="53" viewBox="0 0 54 53" fill="none" xmlns="http://www.w3.org/2000/svg">
<circle cx="26.8462" cy="26.499" r="25.5" stroke="#666666" stroke-width="2"/>
<g clip-path="url(#clip0_540_1162)">
<path d="M25.9388 18.4718L21.1352 20.752L21.0297 20.8241C20.8381 20.9641 20.457 21.2924 20.457 21.6865L20.4559 26.6085L20.4505 26.6946C20.4408 26.9336 20.4688 27.5322 20.9662 27.5322L21.1104 27.4805L21.3204 27.3965C21.6326 27.2631 22.0395 27.0467 22.0395 26.8313L22.0966 23.0849L22.1289 23.0279L22.1849 22.9525L22.2774 22.8481L22.4131 22.7167C22.5466 22.5951 22.7361 22.4454 22.9987 22.27L23.7965 21.6229L23.9289 21.5411L24.0376 21.4841L24.1593 21.4335C24.3864 21.357 24.6179 21.3796 24.5253 21.8609L24.4715 21.9653L24.1905 22.4573L24.0344 22.7436L23.8654 23.0666L23.6899 23.4208L23.5166 23.7976C23.2044 24.5006 22.9428 25.2757 22.9428 25.8947V29.6358L19.6054 37.5324L19.5602 37.6131L19.4827 37.7746L19.4246 37.9178C19.2329 38.4356 19.0994 39.327 20.2298 39.6898L20.3525 39.7006L20.4925 39.6984C20.8445 39.6801 21.4614 39.5369 21.8124 38.8124L24.7546 33.0162L24.8461 32.8095L24.929 32.6394L25.0334 32.4467C25.2767 32.0204 25.6363 31.5704 25.9378 31.9149L28.0295 34.3156L28.0833 34.4566L28.1662 34.7258L28.2427 35.0283L28.2965 35.2802L28.3514 35.5741L28.4052 35.9111L28.4548 36.2922L28.5 36.7207L28.5204 36.9532L28.5538 37.4538L28.5786 38.005C28.585 38.1977 28.5893 38.399 28.5915 38.6079V38.9341L28.5829 38.9954C28.5822 39.0065 28.5818 39.0177 28.5818 39.0288L28.5861 39.1106C28.6184 39.3518 28.8316 39.7479 29.893 39.7479H29.9921L30.1191 39.7393C30.4346 39.706 30.9664 39.5649 30.9664 38.9879V35.8691L30.9352 35.572L30.8964 35.3028L30.8587 35.0832L30.7801 34.6978L30.7123 34.4071L30.6283 34.0906L30.5282 33.7504L30.4098 33.3887L30.3452 33.2003L30.1977 32.8095C29.6113 31.3321 28.7824 29.9629 27.7453 28.7584V27.7066L28.2545 24.7837L28.3083 24.7245L28.3945 24.6416C28.6001 24.4586 28.992 24.2131 29.2719 24.6675L29.2708 24.7267L29.2773 24.7966L29.2966 24.8925L29.3343 25.0098C29.4603 25.35 29.8328 25.9034 30.9104 26.4793L32.9882 27.2544L33.1055 27.2878L33.2745 27.3276C33.591 27.3901 34.0432 27.4159 34.2047 27.108L34.2768 26.9175C34.3565 26.6796 34.5233 26.0261 34.0184 25.8366L32.2012 24.7773L32.0031 24.6298L31.8287 24.4866C31.795 24.4582 31.7617 24.4295 31.7286 24.4005L31.5079 24.1959C30.9309 23.6361 30.2042 22.7264 30.173 21.666L30.174 21.4432L30.1331 21.2591L30.0868 21.0911L30.019 20.8844C29.78 20.218 29.2148 19.1533 27.9714 18.7636L27.8691 18.6882L27.7464 18.6118L27.5817 18.5257C27.3272 18.4004 27.049 18.3308 26.7655 18.3215C26.4821 18.3123 26.1999 18.3635 25.9378 18.4718H25.9388ZM29.1588 13.9126C27.9725 13.9126 27.0692 14.8481 27.0692 16.0754C27.0692 17.3027 27.9735 18.2382 29.1599 18.2382C30.2903 18.2382 31.2506 17.3027 31.2506 16.0754C31.2506 14.9063 30.3463 13.9126 29.1588 13.9126Z" fill="#666666"/>
</g>
<defs>
<clipPath id="clip0_540_1162">
<rect width="25.8375" height="25.8375" fill="white" transform="translate(13.9147 13.9126)"/>
</clipPath>
</defs>
</svg>
