<svg width="48" height="48" viewBox="0 0 48 48" fill="none" xmlns="http://www.w3.org/2000/svg">
<circle cx="24" cy="24" r="24" fill="white" fill-opacity="0.1"/>
<path d="M31.8759 22.5496L28.4705 21.2884L26.3267 17.3786C26.2004 17.2524 26.0741 17.1262 26.0741 17.0001C25.9484 16.8742 25.9484 16.8742 25.8221 16.748C24.939 15.8652 23.6782 15.7392 22.5432 16.2435L16.6154 18.2616C16.111 18.3875 15.7327 18.892 15.6066 19.3966L15.1021 24.0628C14.9761 24.8198 15.6066 25.5765 16.3632 25.7025H16.4893C17.246 25.7025 17.8767 25.1982 17.8767 24.4415L18.2551 20.7839L20.5251 20.0271C20.1467 20.9099 19.7684 21.7928 19.5163 22.4235C19.0118 23.5586 19.0118 25.0719 19.6422 26.3333L15.7327 35.4142C15.3543 36.2965 15.7327 37.4319 16.6153 37.8102C16.9938 37.6842 17.246 37.8102 17.4984 37.8102C18.2551 37.8102 18.8855 37.4318 19.1378 36.6752L22.0386 30.117C23.8041 33.2698 25.822 36.9275 25.822 37.0535C26.2004 37.6842 26.831 38.0625 27.4617 38.0625C27.7137 38.0625 28.0921 37.9362 28.3444 37.8101C29.2275 37.3058 29.6058 36.1707 29.1011 35.2878C28.9751 35.0357 25.9484 29.3603 23.9306 25.9548L25.6957 22.0451L26.3267 23.1801C26.4527 23.5585 26.8311 23.6846 27.0834 23.8108L30.9928 25.3242C31.1192 25.3242 31.3712 25.4501 31.4975 25.4501C32.1279 25.4501 32.6326 25.0718 32.8849 24.4414C33.0108 23.6844 32.6325 22.8016 31.8758 22.5494M25.8221 15.4868C27.3354 15.4868 28.5968 14.2256 28.5968 12.7123C28.5968 11.1988 27.3354 9.9375 25.8221 9.9375C24.3089 9.9375 23.0476 11.1987 23.0476 12.7123C23.0476 14.2256 24.3089 15.4868 25.8221 15.4868Z" fill="white"/>
</svg>
